<svg width="30" height="32" viewBox="0 0 30 32" fill="none" xmlns="http://www.w3.org/2000/svg">
<g id="Molmaker shape">
<path id="Vector" d="M11.1104 3.49702C11.1104 1.56565 12.6602 0 14.5721 0C16.4847 0 18.0342 1.56561 18.0342 3.49702C18.0342 5.42876 16.4847 6.99441 14.5721 6.99441C12.6603 6.99441 11.1104 5.4288 11.1104 3.49702Z" fill="#E62E05"/>
<path id="Vector_2" d="M4.27393 28.503C4.27393 26.5712 5.82423 25.0052 7.73605 25.0052C9.64794 25.0052 11.1982 26.5709 11.1982 28.503C11.1982 30.434 9.64834 32 7.73605 32C5.8239 32 4.27393 30.434 4.27393 28.503Z" fill="#E62E05"/>
<path id="Vector_3" d="M23.0756 25.0538C23.0756 23.122 24.6259 21.5564 26.538 21.5564C28.4503 21.5564 29.9998 23.1217 29.9998 25.0538C29.9998 26.9848 28.4503 28.5515 26.538 28.5515C24.6258 28.5516 23.0756 26.9852 23.0756 25.0538Z" fill="#E62E05"/>
<path id="Vector_4" d="M0 19.8802C0 17.9488 1.54983 16.3828 3.46212 16.3828C5.37402 16.3828 6.92424 17.9489 6.92424 19.8802C6.92424 21.8116 5.37394 23.3772 3.46212 23.3772C1.54986 23.3772 0 21.8119 0 19.8802Z" fill="#E62E05"/>
<path id="Vector 4" d="M14.5296 3.4187L26.4949 25.2125M14.5296 3.4187L3.41907 19.6572M14.5296 3.4187L7.69236 28.6311M26.4949 25.2125L7.69236 28.6311M26.4949 25.2125L3.41907 19.6572M7.69236 28.6311L3.41907 19.6572" stroke="#344054" stroke-width="1.5" stroke-linejoin="round"/>
</g>
</svg>
